<?xml version="1.0" encoding="utf-8"?>
<!-- Generator: Adobe Illustrator 27.5.0, SVG Export Plug-In . SVG Version: 6.00 Build 0)  -->
<svg version="1.1" xmlns="http://www.w3.org/2000/svg" xmlns:xlink="http://www.w3.org/1999/xlink" x="0px" y="0px"
	viewBox="0 0 3710 3710" style="enable-background:new 0 0 3710 3710;" xml:space="preserve">
	<g id="Background">
		<g>
			<g>
				<rect style="fill:rgba(0, 0, 0, 0);" width="3710" height="3710" />
			</g>
		</g>
	</g>
	<g id="Illustration">
		<g>
			<linearGradient id="SVGID_1_" gradientUnits="userSpaceOnUse" x1="3601.3425" y1="4064.0781" x2="1123.7527"
				y2="987.0668">
				<stop offset="0" style="stop-color:#DAE3FE" />
				<stop offset="1" style="stop-color:#E9EFFD" />
			</linearGradient>
			<path style="fill:url(#SVGID_1_);" d="M2930.442,2843.178c-57.496,59.506-111.897,97.88-154.88,128.199
			c-505.244,356.389-1103.083,252.504-1230.14,227.134c-187.624-37.463-550.297-109.879-812.503-413.015
			c-396.696-458.619-334.925-1181.161-27.22-1658.121c56.284-87.244,353.592-571.469,957.869-649.124
			c365.702-46.996,791.994,47.789,1100.702,302.053C3412.276,1314.026,3366.145,2392.239,2930.442,2843.178z" />
			<g>
				<g>
					<path style="fill:#BDD0FB;" d="M3251.51,840.479c-0.143-13.565-18.416-17.932-24.624-5.87
					c-60.016,116.614-226.965,417.467-417.554,556.252c-310.323,225.974-571.301,642.609-456.723,909.489
					C2352.609,2300.35,3267.054,2318.469,3251.51,840.479z" />
					<path style="opacity:0.43;fill:#FFFFFF;" d="M3190.987,1012.01c-1.141,3.979-2.398,7.173-3.6,10.666l-3.766,10.222
					l-7.751,20.338c-5.259,13.519-10.723,26.952-16.188,40.386c-11.026,26.826-22.385,53.513-33.988,80.096
					c-23.305,53.123-48.045,105.607-73.571,157.708c-25.454,52.142-52.366,103.572-80.356,154.41
					c-28.033,50.811-56.797,101.246-87.205,150.708c-60.61,99.023-126.663,194.844-199.222,285.614
					c-36.75,44.993-74.694,89.049-115.113,130.81c-40.704,41.455-83.193,81.2-128.388,117.669c-0.983,0.793-2.422,0.639-3.215-0.344
					c-0.773-0.958-0.646-2.351,0.271-3.156l0.024-0.02c43.586-38.057,85.048-78.388,124.444-120.666
					c39.519-42.175,76.549-86.609,112.368-131.939c35.804-45.364,69.774-92.163,102.666-139.693
					c32.88-47.557,63.775-96.45,94.386-145.503c60.822-98.396,116.363-200.001,169.063-303.028
					c26.243-51.576,51.448-103.688,75.724-156.233c12.179-26.254,24.119-52.622,35.729-79.135l17.101-39.899l8.343-20.028
					l4.056-10.049c1.275-3.313,2.702-6.853,3.699-9.798l0.164-0.487c0.401-1.186,1.688-1.823,2.873-1.421
					C3190.684,1009.627,3191.315,1010.854,3190.987,1012.01z" />
				</g>
				<g>
					<path style="fill:#91B3FA;" d="M2834.487,473.238c-3.687-13.267-23.202-12.951-26.294,0.441
					c-29.886,129.466-119.172,466.522-274.563,650.592c-253.015,299.708-406.605,773.973-221.678,1006.861
					C2311.952,2131.132,3236.201,1918.761,2834.487,473.238z" />
					<path style="opacity:0.43;fill:#FFFFFF;" d="M2818.48,656.685c-0.107,4.199-0.536,7.643-0.83,11.372l-1.115,10.974
					l-2.475,21.898c-1.752,14.583-3.735,29.132-5.719,43.682c-4.073,29.084-8.517,58.116-13.235,87.107
					c-9.548,57.965-20.71,115.664-32.758,173.186c-11.965,57.544-25.589,114.755-40.453,171.658
					c-14.913,56.887-30.66,113.589-48.314,169.751c-35.078,112.369-76.478,222.964-125.737,330.242
					c-25.209,53.371-51.865,106.125-81.609,157.25c-30.115,50.895-62.468,100.561-98.406,147.689
					c-0.796,1.043-2.311,1.258-3.384,0.48c-1.047-0.759-1.287-2.182-0.561-3.22l0.019-0.026
					c33.868-48.302,65.013-98.291,93.57-149.672c28.711-51.308,54.331-104.204,78.497-157.673
					c24.145-53.499,46.077-107.94,66.73-162.829c20.637-54.911,38.924-110.635,56.895-166.441
					c35.462-111.795,64.764-225.413,90.861-339.707c12.923-57.181,24.661-114.627,35.355-172.264
					c5.395-28.81,10.52-57.672,15.274-86.593l6.783-43.429l3.163-21.74l1.457-10.875c0.418-3.568,0.929-7.403,1.163-10.531
					l0.039-0.529c0.096-1.287,1.245-2.252,2.565-2.154C2817.538,654.384,2818.51,655.448,2818.48,656.685z" />
				</g>
			</g>
			<g>
				<path style="fill:#BDD0FB;" d="M2395,1060.1c-0.15-8.587-3.736-16.756-9.958-22.677c-6.22-5.922-14.556-9.101-23.14-8.826
				l-694.619,22.195c-17.68,0.565-31.566,15.336-31.039,33.017l34.274,1150.394c0.521,17.457,14.911,31.291,32.375,31.121
				l680.657-6.62c8.55-0.083,16.712-3.576,22.676-9.704c5.964-6.127,9.233-14.382,9.085-22.931L2395,1060.1z" />
				<g style="opacity:0.4;">
					<path style="fill:#FFFFFF;" d="M2322.534,1115.677h-618.561c-6.016,0-10.844,3.554-10.782,9.259l0.591,54.179
					c0.062,5.729,5.023,11.995,11.057,12.002l620.322,0.542c6.141,0.007,10.895-6.642,10.698-12.423l-1.882-54.173
					C2333.78,1119.306,2328.657,1115.677,2322.534,1115.677z" />
					<path style="fill:#FFFFFF;" d="M2326.55,1232.746l-621.254-1.034c-6.042-0.01-10.878,5.757-10.816,11.511l0.596,55.189
					c0.062,5.779,5.033,11.258,11.093,11.275l623.03,1.721c6.168,0.017,10.98-5.484,10.781-11.317l-1.898-55.693
					C2337.884,1238.593,2332.7,1232.757,2326.55,1232.746z" />
					<path style="fill:#FFFFFF;" d="M2330.741,1357.155l-624.064-2.122c-6.07-0.021-10.959,2.784-10.896,8.588l0.602,55.672
					c0.063,5.829,5.044,10.236,11.129,10.263l625.762,2.785c6.196,0.028,11.067-4.375,10.866-10.259l-1.916-56.184
					C2342.024,1360.04,2336.919,1357.177,2330.741,1357.155z" />
					<path style="fill:#FFFFFF;" d="M2334.828,1478.488l-626.805-3.193c-6.096-0.031-10.994,3.922-10.931,9.777l0.607,56.16
					c0.063,5.881,5.054,9.196,11.166,9.234l628.518,3.868c6.223,0.038,11.155-3.246,10.952-9.182l-1.932-56.682
					C2346.202,1482.559,2341.034,1478.52,2334.828,1478.488z" />
					<path style="fill:#FFFFFF;" d="M2338.952,1600.886l-629.57-4.283c-6.122-0.041-11.03,5.08-10.966,10.987l0.612,56.655
					c0.064,5.933,5.111,12.362,11.25,12.41l631.395,5.007c6.251,0.05,11.099-6.359,10.895-12.348l-1.95-57.187
					C2350.416,1606.166,2345.186,1600.928,2338.952,1600.886z" />
					<path style="fill:#FFFFFF;" d="M2343.112,1724.364l-632.36-5.392c-6.149-0.052-11.066,6.259-11.001,12.218l0.617,57.158
					c0.064,5.985,5.121,11.32,11.288,11.38l634.201,6.128c6.279,0.06,11.188-5.227,10.982-11.27l-1.967-57.698
					C2354.668,1730.874,2349.374,1724.417,2343.112,1724.364z" />
					<path style="fill:#FFFFFF;" d="M2347.454,1853.251l-635.272-6.558c-6.177-0.064-11.149,3.181-11.084,9.193l0.623,57.666
					c0.065,6.039,5.132,10.261,11.326,10.332l637.032,7.269c6.307,0.072,11.278-4.074,11.07-10.171l-1.985-58.216
					C2358.957,1856.697,2353.745,1853.316,2347.454,1853.251z" />
					<path style="fill:#FFFFFF;" d="M2351.69,1978.971l-638.113-7.707c-6.204-0.075-11.186,4.364-11.12,10.429l0.628,58.182
					c0.066,6.093,5.143,9.182,11.364,9.263l639.888,8.431c6.337,0.083,11.37-2.9,11.16-9.052l-2.003-58.741
					C2363.286,1983.652,2358.009,1979.048,2351.69,1978.971z" />
					<path style="fill:#FFFFFF;" d="M2355.963,2105.815l-640.979-8.876c-6.232-0.086-11.223,5.567-11.157,11.688l0.634,58.704
					c0.067,6.148,5.201,12.46,11.452,12.554l642.87,9.652c6.366,0.096,11.313-6.124,11.101-12.331l-2.021-59.273
					C2367.653,2111.753,2362.31,2105.903,2355.963,2105.815z" />
				</g>
			</g>
			<g>
				<path style="fill:#7D97F4;" d="M1262.283,573.286c-0.355-18.973-15.729-34.585-34.576-34.585H515.365
				c-19.099,0-37.856,16.427-37.856,35.658v1718.863c0,9.251,5.294,18.123,11.799,24.656c6.506,6.532,16.144,10.189,25.333,10.164
				l744.793-2.047c9.268-0.026,18.341-3.796,24.824-10.465c6.483-6.67,10.137-15.889,9.963-25.219L1262.283,573.286z" />
				<g style="opacity:0.5;">
					<g>
						<polygon style="fill:#FFFFFF;"
							points="737.68,741.248 534.749,740.974 533.14,636.238 736.268,636.238 					" />
						<polygon style="fill:#FFFFFF;"
							points="965.143,741.196 762.415,740.921 761.027,636.238 963.951,636.238 					" />
						<polygon style="fill:#FFFFFF;"
							points="1192.376,741.143 989.853,740.869 988.685,636.238 1191.405,636.238 					" />
					</g>
					<g>
						<polygon style="fill:#FFFFFF;"
							points="740.216,929.245 537.639,929.375 536.035,825.323 738.808,825.239 					" />
						<polygon style="fill:#FFFFFF;"
							points="967.283,929.098 764.908,929.229 763.524,825.229 966.095,825.144 					" />
						<g>
							<polygon style="fill:#FFFFFF;"
								points="1194.121,928.952 991.95,929.082 990.786,825.135 1193.153,825.05 						" />
						</g>
					</g>
					<g>
						<polygon style="fill:#FFFFFF;"
							points="742.744,1115.949 540.519,1116.163 538.92,1012.472 741.341,1012.304 					" />
						<polygon style="fill:#FFFFFF;"
							points="969.415,1115.709 767.393,1115.923 766.014,1012.284 968.231,1012.117 					" />
						<polygon style="fill:#FFFFFF;"
							points="1195.859,1115.469 994.039,1115.684 992.88,1012.096 1194.894,1011.929 					" />
					</g>
					<g>
						<polygon style="fill:#FFFFFF;"
							points="745.262,1302.007 543.388,1302.304 541.796,1198.972 743.863,1198.721 					" />
						<polygon style="fill:#FFFFFF;"
							points="971.54,1301.675 769.868,1301.971 768.494,1198.691 970.36,1198.44 					" />
						<polygon style="fill:#FFFFFF;"
							points="1197.592,1301.343 996.122,1301.639 994.966,1198.41 1196.63,1198.16 					" />
					</g>
					<g>
						<polygon style="fill:#FFFFFF;"
							points="747.772,1487.423 546.248,1487.802 544.661,1384.827 746.378,1384.493 					" />
						<polygon style="fill:#FFFFFF;"
							points="973.658,1486.998 772.336,1487.376 770.966,1384.453 972.482,1384.12 					" />
						<polygon style="fill:#FFFFFF;"
							points="1199.318,1486.574 998.197,1486.952 997.045,1384.079 1198.36,1383.747 					" />
					</g>
					<g>
						<polygon style="fill:#FFFFFF;"
							points="750.273,1672.198 549.099,1672.658 547.516,1570.039 748.884,1569.624 					" />
						<polygon style="fill:#FFFFFF;"
							points="975.768,1671.682 774.794,1672.142 773.429,1569.573 974.597,1569.159 					" />
						<polygon style="fill:#FFFFFF;"
							points="1201.039,1671.167 1000.265,1671.626 999.117,1569.108 1200.083,1568.694 					" />
					</g>
					<g>
						<polygon style="fill:#FFFFFF;"
							points="752.766,1856.338 551.939,1856.878 550.362,1754.612 751.382,1754.116 					" />
						<polygon style="fill:#FFFFFF;"
							points="977.872,1855.731 777.244,1856.272 775.884,1754.056 976.703,1753.56 					" />
						<polygon style="fill:#FFFFFF;"
							points="1202.754,1855.125 1002.326,1855.665 1001.182,1753.5 1201.802,1753.004 					" />
					</g>
					<g>
						<polygon style="fill:#FFFFFF;"
							points="755.249,2039.843 554.769,2040.465 553.197,1938.55 753.87,1937.973 					" />
						<polygon style="fill:#FFFFFF;"
							points="979.967,2039.147 779.686,2039.767 778.331,1937.903 978.804,1937.327 					" />
						<polygon style="fill:#FFFFFF;"
							points="1204.462,2038.451 1004.38,2039.071 1003.24,1937.257 1203.514,1936.681 					" />
					</g>
					<g>
						<polygon style="fill:#FFFFFF;"
							points="757.725,2222.72 557.59,2223.421 556.024,2121.857 756.35,2121.199 					" />
						<polygon style="fill:#FFFFFF;"
							points="982.056,2221.933 782.119,2222.634 780.768,2121.119 980.896,2120.463 					" />
						<polygon style="fill:#FFFFFF;"
							points="1206.165,2221.149 1006.427,2221.848 1005.29,2120.383 1205.22,2119.727 					" />
					</g>
				</g>
			</g>
			<g>
				<path style="fill:#91B3FA;" d="M1765.46,752.385c-0.234-11.072-10.44-19.981-22.948-19.981h-758.69
				c-12.677,0-26.141,9.184-26.141,20.407v1567.72c0,8.377,5.36,16.41,12.06,22.326c6.7,5.916,16.58,9.228,26.043,9.206
				l766.999-1.854c9.544-0.022,18.877-3.437,25.553-9.476c6.677-6.04,10.435-14.221,10.255-22.67L1765.46,752.385z" />
				<g>
					<polygon style="fill:#BDD0FB;"
						points="1329.755,843.505 1081.57,842.744 1081.663,815.25 1329.57,815.944 				" />
					<polygon style="fill:#BDD0FB;"
						points="1330.436,944.774 1081.23,943.767 1081.323,916.047 1330.249,916.986 				" />
					<polygon style="fill:#BDD0FB;"
						points="1331.122,1046.879 1080.887,1045.623 1080.981,1017.674 1330.933,1018.863 				" />
					<polygon style="fill:#BDD0FB;"
						points="1331.813,1149.835 1080.542,1148.324 1080.637,1120.143 1331.624,1121.585 				" />
					<polygon style="fill:#BDD0FB;"
						points="1332.511,1253.648 1080.193,1251.877 1080.289,1223.462 1332.32,1225.161 				" />
					<polygon style="fill:#BDD0FB;"
						points="1333.923,1463.888 1079.487,1461.587 1079.584,1432.694 1333.729,1434.921 				" />
					<polygon style="fill:#BDD0FB;"
						points="1336.087,1785.96 1078.406,1782.83 1078.505,1753.197 1335.888,1756.25 				" />
					<polygon style="fill:#BDD0FB;"
						points="1333.214,1358.328 1079.841,1356.295 1079.938,1327.642 1333.021,1329.603 				" />
					<polygon style="fill:#BDD0FB;"
						points="1334.639,1570.341 1079.13,1567.769 1079.228,1538.631 1334.443,1541.129 				" />
					<polygon style="fill:#BDD0FB;"
						points="1335.36,1677.694 1078.769,1674.845 1078.868,1645.461 1335.162,1648.234 				" />
					<polygon style="fill:#BDD0FB;"
						points="1336.821,1895.153 1078.039,1891.737 1078.139,1861.851 1336.619,1865.187 				" />
					<polygon style="fill:#BDD0FB;"
						points="1337.561,2005.281 1077.669,2001.575 1077.771,1971.432 1337.358,1975.058 				" />
					<polygon style="fill:#BDD0FB;"
						points="1338.307,2116.362 1077.296,2112.36 1077.398,2081.959 1338.102,2085.878 				" />
					<polygon style="fill:#BDD0FB;"
						points="1339.06,2228.401 1076.92,2224.101 1077.023,2193.435 1338.854,2197.655 				" />
					<polygon style="fill:#BDD0FB;"
						points="1655.144,844.501 1405.402,843.737 1405.132,816.155 1654.593,816.853 				" />
					<polygon style="fill:#BDD0FB;"
						points="1657.17,946.094 1406.395,945.081 1406.123,917.272 1656.615,918.218 				" />
					<polygon style="fill:#BDD0FB;"
						points="1659.213,1048.529 1407.395,1047.263 1407.121,1019.225 1658.652,1020.42 				" />
					<polygon style="fill:#BDD0FB;"
						points="1661.273,1151.818 1408.404,1150.297 1408.127,1122.025 1660.707,1123.475 				" />
					<polygon style="fill:#BDD0FB;"
						points="1663.349,1255.969 1409.422,1254.187 1409.143,1225.679 1662.78,1227.389 				" />
					<polygon style="fill:#BDD0FB;"
						points="1667.556,1466.905 1411.482,1464.589 1411.198,1435.6 1666.976,1437.842 				" />
					<polygon style="fill:#BDD0FB;"
						points="1674,1790.064 1414.639,1786.914 1414.348,1757.18 1673.405,1760.252 				" />
					<polygon style="fill:#BDD0FB;"
						points="1665.443,1360.995 1410.448,1358.948 1410.166,1330.201 1664.869,1332.174 				" />
					<polygon style="fill:#BDD0FB;"
						points="1669.685,1573.714 1412.525,1571.125 1412.239,1541.891 1669.101,1544.405 				" />
					<polygon style="fill:#BDD0FB;"
						points="1671.833,1681.429 1413.577,1678.562 1413.288,1649.08 1671.244,1651.87 				" />
					<polygon style="fill:#BDD0FB;"
						points="1676.184,1899.631 1415.709,1896.193 1415.415,1866.204 1675.585,1869.563 				" />
					<polygon style="fill:#BDD0FB;"
						points="1678.388,2010.142 1416.788,2006.411 1416.492,1976.163 1677.783,1979.814 				" />
					<polygon style="fill:#BDD0FB;"
						points="1680.61,2121.609 1417.876,2117.581 1417.578,2087.073 1680,2091.019 				" />
					<polygon style="fill:#BDD0FB;"
						points="1682.852,2234.043 1418.975,2229.713 1418.673,2198.94 1682.237,2203.186 				" />
				</g>
			</g>
			<path style="fill:#7D97F4;" d="M2789.974,3199.952H919.619c-244.531,0-442.763-198.232-442.763-442.763V2183.54h2755.881v573.649
			C3232.737,3001.721,3034.505,3199.952,2789.974,3199.952z" />
			<g>
				<polygon style="fill:#BDD0FB;"
					points="2906.156,3211.114 1339.277,3212.536 1422.013,3040.514 2814.275,3040.514 			" />
				<polygon style="fill:#BDD0FB;"
					points="2790.895,2934.128 1451.197,2933.166 1530.265,2766.831 2702.387,2765.239 			" />
				<polygon style="fill:#BDD0FB;"
					points="2687.327,2681.333 1546.114,2679.825 1631.605,2529.88 2598.237,2531.581 			" />
				<polygon style="fill:#BDD0FB;"
					points="2582.646,2494.243 1648.309,2493.13 1714.014,2346.131 2514.715,2345.017 			" />
				<polygon style="fill:#BDD0FB;"
					points="2501.351,2309.381 1730.718,2307.153 1781.017,2190.155 2446.783,2193.563 			" />
			</g>
			<g>

				<linearGradient id="SVGID_00000089546646169802106640000009459723618017688477_"
					gradientUnits="userSpaceOnUse" x1="10024.6396" y1="3061.9607" x2="9411.9004" y2="3728.45"
					gradientTransform="matrix(1 0.0095 -0.0095 1 -8951.6113 -63.4747)">
					<stop offset="0" style="stop-color:#09005D" />
					<stop offset="1" style="stop-color:#1A0F91" />
				</linearGradient>
				<path style="fill:url(#SVGID_00000089546646169802106640000009459723618017688477_);" d="M849.78,3141.521
				c0,0-6.689,35.865-10.139,71.398c-1.349,13.886,9.251,26.056,23.185,26.77c47.339,2.424,148.604,7.226,184.971,5.95
				c5.467-0.192,9.093-5.752,7.119-10.853c-1.654-4.275-4.89-7.75-9.037-9.704l-166.597-78.501L849.78,3141.521z" />

				<linearGradient id="SVGID_00000155826295648207525940000013740037405515793846_"
					gradientUnits="userSpaceOnUse" x1="10083.167" y1="2127.3652" x2="9561.7676" y2="2834.0549"
					gradientTransform="matrix(1 0.0095 -0.01 1.0485 -8952.5537 15.3192)">
					<stop offset="0" style="stop-color:#09005D" />
					<stop offset="1" style="stop-color:#1A0F91" />
				</linearGradient>
				<path style="fill:url(#SVGID_00000155826295648207525940000013740037405515793846_);" d="M866.287,2312.523
				c-2.314,11.745-17.422,587.034,38.777,845.442c0.917,4.216-1.159,8.534-4.993,10.133c-9.034,3.768-26.725,9.181-47.87,9.724
				c-6.548,0.168-12.375-4.349-14.159-10.954c-16.197-59.985-93.684-360.49-101.434-646.921c-8.66-320.06,0.104-10.894,0.104-10.894
				l8.755-197.706L866.287,2312.523z" />

				<linearGradient id="SVGID_00000013181285550741847960000003411626322513120643_"
					gradientUnits="userSpaceOnUse" x1="9897.21" y1="2935.4707" x2="9284.4453" y2="3601.9878"
					gradientTransform="matrix(1 0.0095 -0.0095 1 -8951.6113 -63.4747)">
					<stop offset="0" style="stop-color:#09005D" />
					<stop offset="1" style="stop-color:#1A0F91" />
				</linearGradient>
				<path style="fill:url(#SVGID_00000013181285550741847960000003411626322513120643_);" d="M667.144,3158.427
				c0,0-10.275,18.04-20.514,66.139c-1.849,8.687,4.153,17.074,12.982,18.028c15.624,1.687,39.678,3.894,58.964,3.946
				c8.889,0.023,15.901-7.651,14.914-16.486c-1.968-17.611-8.347-46.536-28.69-69.226L667.144,3158.427z" />

				<linearGradient id="SVGID_00000127006210998187135610000009841994861264422563_"
					gradientUnits="userSpaceOnUse" x1="9639.6221" y1="3108.5613" x2="9686.6143" y2="3108.5613"
					gradientTransform="matrix(1 0.0095 -0.0095 1 -8951.6113 -63.4747)">
					<stop offset="0" style="stop-color:#FEBBBA" />
					<stop offset="1" style="stop-color:#FF928E" />
				</linearGradient>
				<path style="fill:url(#SVGID_00000127006210998187135610000009841994861264422563_);" d="M658.799,3103.072l11.293,65.098
				c0,0,11.696,8.874,35.058,2.744l-5.02-69.973L658.799,3103.072z" />

				<linearGradient id="SVGID_00000088827054139172843250000001490007752062214833_"
					gradientUnits="userSpaceOnUse" x1="9989.6406" y1="1992.7522" x2="9468.2148" y2="2699.4778"
					gradientTransform="matrix(1 0.0095 -0.0101 1.0676 -8952.377 46.5855)">
					<stop offset="0" style="stop-color:#09005D" />
					<stop offset="1" style="stop-color:#1A0F91" />
				</linearGradient>
				<path style="fill:url(#SVGID_00000088827054139172843250000001490007752062214833_);" d="M633.995,2329.2
				c-50.924,308.65,3.118,764.084,21.959,853.302c1.153,5.463,5.234,9.678,10.4,10.643c8.774,1.638,23.232,3.046,37.54-1.242
				c4.929-1.476,8.428-6.176,8.68-11.635c3.328-71.953,2.79-513.876,49.158-688.082c2.35-8.828,7.485-16.499,14.541-21.748
				l87.392-65.022l7.668-106.38L633.995,2329.2z" />

				<linearGradient id="SVGID_00000086693887126791460080000014471561427298319002_"
					gradientUnits="userSpaceOnUse" x1="645.6089" y1="2200.9583" x2="575.9929" y2="1929.2313">
					<stop offset="0" style="stop-color:#09005D" />
					<stop offset="1" style="stop-color:#1A0F91" />
				</linearGradient>
				<path style="fill:url(#SVGID_00000086693887126791460080000014471561427298319002_);" d="M695.996,1956.056l-53.817-139.741
				c0,0-132.059,91.383-155.248,206.863c25.357,2.111,71.118,8.904,116.096,32.156
				C613.48,2000.801,695.996,1956.056,695.996,1956.056z" />
				<g>

					<linearGradient id="SVGID_00000147903556791528574300000018066052214025594246_"
						gradientUnits="userSpaceOnUse" x1="945.5671" y1="1590.8135" x2="789.6595" y2="2426.0352">
						<stop offset="0" style="stop-color:#09005D" />
						<stop offset="1" style="stop-color:#1A0F91" />
					</linearGradient>
					<path style="fill:url(#SVGID_00000147903556791528574300000018066052214025594246_);" d="M944.95,1781.449
					c-143.751-3.747-302.771,34.866-302.771,34.866c-45.242,249.653-12.631,538.422-12.631,538.422
					c111.027,30.251,237.035-15.587,237.035-15.587c19.497-104.344,108.619-397.675,108.619-397.675
					c70.33-8.048,128.392-27.763,176.303-54.103c-35.948-42.483-52.574-96.262-59.714-128.026
					C1040.807,1774.657,989.288,1782.605,944.95,1781.449z" />

					<linearGradient id="SVGID_00000159443854135769125800000008069249769704807565_"
						gradientUnits="userSpaceOnUse" x1="1227.0354" y1="1681.8323" x2="1094.3689" y2="2392.5474">
						<stop offset="0" style="stop-color:#09005D" />
						<stop offset="1" style="stop-color:#1A0F91" />
					</linearGradient>
					<path style="fill:url(#SVGID_00000159443854135769125800000008069249769704807565_);" d="M1091.791,1759.345
					c7.14,31.765,23.765,85.543,59.714,128.026c128.151-70.454,183.553-188.38,206.062-257.804
					c-13.478-4.438-26.297-10.779-37.846-19.013C1277.579,1678.003,1185.61,1731.166,1091.791,1759.345z" />

					<linearGradient id="SVGID_00000110429051580346386010000006783171182320297373_"
						gradientUnits="userSpaceOnUse" x1="1415.6108" y1="1450.7523" x2="1287.119" y2="1731.4054">
						<stop offset="0" style="stop-color:#FEBBBA" />
						<stop offset="1" style="stop-color:#FF928E" />
					</linearGradient>
					<path style="fill:url(#SVGID_00000110429051580346386010000006783171182320297373_);" d="M1339.74,1564.436
					c-3.946,15.985-10.814,31.387-20.019,46.118c11.549,8.234,24.368,14.575,37.846,19.013
					c10.891-33.593,14.086-55.837,14.086-55.837C1357.692,1556.536,1339.74,1564.436,1339.74,1564.436z" />
				</g>
				<g>

					<linearGradient id="SVGID_00000115513257867886328570000001474169420793964713_"
						gradientUnits="userSpaceOnUse" x1="1416.8578" y1="1377.9868" x2="1366.1372" y2="1574.1058">
						<stop offset="0" style="stop-color:#FEBBBA" />
						<stop offset="1" style="stop-color:#FF928E" />
					</linearGradient>
					<path style="fill:url(#SVGID_00000115513257867886328570000001474169420793964713_);" d="M1368.183,1578.035
					c1.433,4.712-15.749,11.703-25.642-7.608c-0.264-9.213-5.488-48.718,0.086-56.168c29.689-39.676,86.987-89.221,86.987-89.221
					c9.513,9.568,1.513,18.801,1.513,18.801l-27.839,28.452c5.667,10.473,12.616,19.335,15.791,31.969
					c2.405,9.567,0.781,19.752-4.123,28.391c-4.922,8.671-11.631,19.939-17.956,28.747
					C1385.028,1578.069,1368.183,1578.035,1368.183,1578.035z" />

					<linearGradient id="SVGID_00000012460903387433049560000004450535131175667366_"
						gradientUnits="userSpaceOnUse" x1="1383.9939" y1="1479.6407" x2="1289.3158" y2="1980.0829">
						<stop offset="0" style="stop-color:#FEBBBA" />
						<stop offset="1" style="stop-color:#FF928E" />
					</linearGradient>
					<path style="fill:url(#SVGID_00000012460903387433049560000004450535131175667366_);"
						d="M1391.055,1490.807l-25.322,21.055
					l-8.089,21.125l22.159,25.059c0,0,7.932-41.995,13.615-51.046C1399.101,1497.949,1396.241,1493.519,1391.055,1490.807z" />
				</g>

				<linearGradient id="SVGID_00000160167122150200647740000003466020242379908481_"
					gradientUnits="userSpaceOnUse" x1="701.7228" y1="1885.0872" x2="912.1991" y2="1885.0872">
					<stop offset="0" style="stop-color:#DAE3FE" />
					<stop offset="1" style="stop-color:#E9EFFD" />
				</linearGradient>
				<polygon style="fill:url(#SVGID_00000160167122150200647740000003466020242379908481_);" points="701.723,1799.338 
				791.927,1993.109 912.199,1777.065 			" />
				<g>

					<linearGradient id="SVGID_00000015326794012130405460000000811522935179656638_"
						gradientUnits="userSpaceOnUse" x1="817.4756" y1="1854.9082" x2="512.0974" y2="3078.949">
						<stop offset="0" style="stop-color:#FF928E" />
						<stop offset="1" style="stop-color:#FE7062" />
					</linearGradient>
					<path style="fill:url(#SVGID_00000015326794012130405460000000811522935179656638_);" d="M630.59,1816.877
					c-21.208,187.341-27.086,366.802-21.298,561.549c70.428,38.088,164.805,34.429,271.727,8.909
					c57.761-264.516,60.826-527.224,80.814-607.615c0.396-1.591-0.612-3.187-2.227-3.473c-24.104-4.266-49.629-6.473-69.679,0.54
					c-27.365,61.951-55.056,113.497-91.318,168.437c-43.831-47.392-76.55-96.118-91.317-146.999
					C680.285,1798.502,656.07,1805.197,630.59,1816.877z" />
					<path style="fill:#FFFFFF;" d="M610.962,2093.336c108.09,12.061,216.556,8.708,320.726-8.352l-10.858,50.949
					c-100.093,17.671-206.281,16.832-315.993,5.29L610.962,2093.336z" />
					<path style="fill:#FFFFFF;" d="M605.115,2234.489c104.344,16.269,205.485,21.407,302.351,11.693l-9.187,55.96
					c-96.684,9.239-194.139,6.556-292.328-7.517L605.115,2234.489z" />
					<path style="fill:#FFFFFF;" d="M663.581,1803.096c2.962,113.606,4.227,218.214-0.835,295.251l35.079,10.023
					c4.871-79.087,10.516-197.376-1.549-307.849c-0.525-4.806-5.336-2.094-10.145-1.601L663.581,1803.096z" />
					<path style="fill:#FFFFFF;" d="M924.449,1771.497c-21.159,98-45.345,202.536-63.477,318.499l35.636-2.506
					c13.324-113.549,36.75-216.323,54.29-314.879L924.449,1771.497z" />
				</g>

				<linearGradient id="SVGID_00000036218521183135007860000008428707133593045669_"
					gradientUnits="userSpaceOnUse" x1="682.2668" y1="2189.2612" x2="613.2216" y2="1919.762">
					<stop offset="0" style="stop-color:#09005D" />
					<stop offset="1" style="stop-color:#1A0F91" />
				</linearGradient>
				<path style="fill:url(#SVGID_00000036218521183135007860000008428707133593045669_);" d="M815.444,2088.173
				c0,0-151.59,83.773-201.771,10.527c-10.418-15.209-12.801-30.248-10.061-44.538c-44.978-23.252-91.088-30.292-116.445-32.403
				c-6.991,34.813-3.825,71.941,16.311,109.626c87.56,163.867,331.565-5.846,331.565-5.846L815.444,2088.173z" />
				<g>
					<g>

						<linearGradient id="SVGID_00000001656161799549681160000004302160557242077572_"
							gradientUnits="userSpaceOnUse" x1="9609.4844" y1="1887.9628" x2="9803.6582" y2="2697.0225"
							gradientTransform="matrix(1 0 0 1 -8683.3223 0)">
							<stop offset="0" style="stop-color:#4042E2" />
							<stop offset="1" style="stop-color:#4F52FF" />
						</linearGradient>
						<path style="fill:url(#SVGID_00000001656161799549681160000004302160557242077572_);" d="M781.123,2220.567l82.577-288.378
						c0.938-3.273,3.73-5.661,7.113-6.055c14.961-1.746,58.315-6.647,108.37-10.88c60.293-5.1,130.312-9.232,172.152-5.717
						c5.948,0.499,9.543,6.791,6.898,12.142c-23.793,48.137-121.663,243.945-170.673,308.089c-1.624,2.125-4.135,3.367-6.809,3.342
						l-191.593-1.782C783.581,2231.275,779.589,2225.927,781.123,2220.567z" />

						<linearGradient id="SVGID_00000085226146182213101900000001221757281066054566_"
							gradientUnits="userSpaceOnUse" x1="9476.4307" y1="2102.002" x2="9586.4453" y2="2102.002"
							gradientTransform="matrix(1 0 0 1 -8683.3223 0)">
							<stop offset="0" style="stop-color:#FEBBBA" />
							<stop offset="1" style="stop-color:#FF928E" />
						</linearGradient>
						<path style="fill:url(#SVGID_00000085226146182213101900000001221757281066054566_);" d="M801.074,2150.895
						c0,0-11.504-47.3-6.863-64.081c4.64-16.782,13.631-38.358,43.596-33.563c29.967,4.794,65.315,17.418,65.315,17.418
						s-1.786,21.858-24.561,14.806l14.124,10.928c0,0-2.019,17.501-21.256,8.152l13.136,14.492c0,0-8.262,14.374-22.416,5.155
						C847.996,2114.982,841.211,2156.59,801.074,2150.895z" />
					</g>
					<path style="fill:#BDD0FB;" d="M869.952,2016.407c1.708,0.504,3.5-0.473,4.003-2.18l15.901-53.941
					c2.063-7.004,7.694-12.262,14.694-13.725c48.314-10.08,173.573-12.878,195.189-13.291c1.774-0.034,3.168-1.495,3.141-3.27
					v-0.001c-0.026-1.784-1.495-3.207-3.279-3.175c-22.248,0.405-146.864,3.103-196.368,13.432
					c-9.327,1.945-16.821,8.923-19.561,18.207l-15.901,53.942C867.269,2014.111,868.245,2015.903,869.952,2016.407L869.952,2016.407
					z" />
				</g>

				<linearGradient id="SVGID_00000159447630799127492020000004161377057534023049_"
					gradientUnits="userSpaceOnUse" x1="852.718" y1="1607.3796" x2="804.275" y2="1841.2423">
					<stop offset="0" style="stop-color:#FEBBBA" />
					<stop offset="1" style="stop-color:#FF928E" />
				</linearGradient>
				<path style="fill:url(#SVGID_00000159447630799127492020000004161377057534023049_);" d="M790.535,1643.986l-37.111,151.212
				c-0.779,2.184,0.099,4.62,2.118,5.761c12.404,7.013,57.141,27.37,111.61-6.439c5.674-3.522,9.57-9.318,10.489-15.932
				l15.906-114.361L790.535,1643.986z" />
				<g>

					<linearGradient id="SVGID_00000161606254491641570020000002340270355300611762_"
						gradientUnits="userSpaceOnUse" x1="10.5585" y1="796.2137" x2="-62.9416" y2="577.3842"
						gradientTransform="matrix(0.9995 0.0308 -0.0308 0.9995 426.628 -639.8537)">
						<stop offset="0" style="stop-color:#FEBBBA" />
						<stop offset="1" style="stop-color:#FF928E" />
					</linearGradient>
					<path style="fill:url(#SVGID_00000161606254491641570020000002340270355300611762_);" d="M902.05,1534.015
					c0,0,29.675,74.348,30.633,112.919c0.958,38.572,8.485,63.814-36.277,70.196c-44.762,6.382-81.586-16.953-100.723-55.936
					c0,0-30.015-60.084-22.127-84.069C781.444,1553.141,902.05,1534.015,902.05,1534.015z" />

					<linearGradient id="SVGID_00000145751110627486308790000009643065171957312188_"
						gradientUnits="userSpaceOnUse" x1="1089.9857" y1="1593.278" x2="1584.4374" y2="1650.0731">
						<stop offset="0" style="stop-color:#09005D" />
						<stop offset="1" style="stop-color:#1A0F91" />
					</linearGradient>
					<path style="fill:url(#SVGID_00000145751110627486308790000009643065171957312188_);" d="M798.221,1633.667l2.22-1.05
					c2.826-1.336,4.135-5.14,2.834-8.315c-5.04-12.298-14.738-40.421-0.903-46.485c17.829-7.816,87.94-22.131,103.84-50.309
					c15.281-27.081,3.588-63.008-15.32-73.706c-1.265-0.716-2.798-0.226-3.502,1.202l-1.71,3.465
					c-1.17,2.372-4.223,1.913-4.795-0.721l0,0c-0.549-2.529-3.412-3.104-4.674-0.926c-4.88,8.426-17.771,21.934-51.318,28.04
					c-47.677,8.677-79.677,29.94-81.626,67.871c-0.124,2.41-2.377,3.683-4.115,2.373c-3.421-2.579-8.982-3.912-16.687,3.151
					c-13.398,12.283-9.089,45.35,18.592,73.294c1.315,1.327,1.228,3.78-0.273,4.842c-5.29,3.743-13.283,12.791,6.304,25.785
					c20.26,13.44,35.715,12.865,41.689,11.911c1.486-0.237,2.489-1.867,2.219-3.573l-5.311-33.555
					c-0.301-1.899,0.994-3.649,2.661-3.598L798.221,1633.667z" />

					<linearGradient id="SVGID_00000176036634170750171350000008209002459041766830_"
						gradientUnits="userSpaceOnUse" x1="-48.4409" y1="816.0371" x2="-121.941" y2="597.2078"
						gradientTransform="matrix(0.9995 0.0308 -0.0308 0.9995 426.628 -639.8537)">
						<stop offset="0" style="stop-color:#FEBBBA" />
						<stop offset="1" style="stop-color:#FF928E" />
					</linearGradient>
					<path style="fill:url(#SVGID_00000176036634170750171350000008209002459041766830_);" d="M812.914,1641.167
					c0,0-10.74-47.239-32.155-34.747c-21.416,12.492,9.284,52.844,26.122,55.119L812.914,1641.167z" />
				</g>
				<g>
					<path style="fill:#FFFFFF;" d="M758.517,1774.838l-32.295,32.295l70.159,60.136l34.523-59.022l42.875,36.193l30.625-75.17
					l-25.614-6.682C837.643,1800.602,797.654,1801.48,758.517,1774.838z" />

					<linearGradient id="SVGID_00000155114996147370741350000018428815034050364606_"
						gradientUnits="userSpaceOnUse" x1="813.6665" y1="1825.2894" x2="856.9167" y2="1825.2894">
						<stop offset="0" style="stop-color:#09005D" />
						<stop offset="1" style="stop-color:#1A0F91" />
					</linearGradient>
					<path style="fill:url(#SVGID_00000155114996147370741350000018428815034050364606_);" d="M828.481,1812.003l-14.108,21.868
					c-2.103,3.26,0.807,7.429,4.592,6.579l34.565-7.76c3.688-0.828,4.623-5.651,1.511-7.797l-20.457-14.108
					C832.57,1809.396,829.807,1809.947,828.481,1812.003z" />

					<linearGradient id="SVGID_00000101094568008755820570000011303714024150227604_"
						gradientUnits="userSpaceOnUse" x1="805.8474" y1="1882.5814" x2="860.4153" y2="1882.5814">
						<stop offset="0" style="stop-color:#09005D" />
						<stop offset="1" style="stop-color:#1A0F91" />
					</linearGradient>
					<polygon style="fill:url(#SVGID_00000101094568008755820570000011303714024150227604_);" points="817.54,1839.428 
					805.847,1936.871 860.415,1841.656 854.29,1828.292 				" />
				</g>
				<g>

					<linearGradient id="SVGID_00000085240042559669608210000010306618419983616420_"
						gradientUnits="userSpaceOnUse" x1="811.1101" y1="1390.7113" x2="804.4283" y2="1449.1769">
						<stop offset="0" style="stop-color:#09005D" />
						<stop offset="1" style="stop-color:#1A0F91" />
					</linearGradient>
					<path style="fill:url(#SVGID_00000085240042559669608210000010306618419983616420_);" d="M912.231,1448.662
					c-44.057-11.863-101.236-23.56-131.578-20.168c-1.231-0.198-2.495-0.063-3.791,0.442c-0.101,0.04-0.209,0.089-0.31,0.13
					c-0.109,0.019-0.225,0.033-0.332,0.052c-1.37,0.248-2.516,0.794-3.463,1.607c-27.633,12.984-70.242,52.867-101.582,86.028
					c-32.933,34.845,48.318,75.824,48.318,75.824l97.055-20.656c0.005,0.011,0.02,0.04,0.02,0.04l0.315-0.112l0.327-0.069
					c0,0-0.004-0.033-0.004-0.045l93.518-33.175C910.724,1538.56,958.527,1461.128,912.231,1448.662z" />

					<linearGradient id="SVGID_00000002370309091981223950000014595754735244349618_"
						gradientUnits="userSpaceOnUse" x1="530.2207" y1="1797.5175" x2="606.8892" y2="1588.8092"
						gradientTransform="matrix(0.9972 -0.0745 0.0745 0.9972 135.7263 -50.5635)">
						<stop offset="0" style="stop-color:#09005D" />
						<stop offset="1" style="stop-color:#1A0F91" />
					</linearGradient>
					<path style="fill:url(#SVGID_00000002370309091981223950000014595754735244349618_);" d="M721.124,1592.454
					c0,0,195.208-34.725,226.711-55.934c31.504-21.208-31.212-8.605-31.212-8.605L721.124,1592.454z" />

					<linearGradient id="SVGID_00000084498357769189946320000002821222864227524779_"
						gradientUnits="userSpaceOnUse" x1="873.4288" y1="1362.7034" x2="930.2242" y2="1173.9426">
						<stop offset="0" style="stop-color:#FF928E" />
						<stop offset="1" style="stop-color:#FE7062" />
					</linearGradient>
					<path style="fill:url(#SVGID_00000084498357769189946320000002821222864227524779_);" d="M708.368,1586.272l213.231-68.697
					l-1.155,13.883l-199.321,60.996C721.124,1592.454,710.016,1591.941,708.368,1586.272z" />

					<linearGradient id="SVGID_00000107583634645538379250000006206846567924418231_"
						gradientUnits="userSpaceOnUse" x1="-228.78" y1="1652.0612" x2="-169.1008" y2="1489.6014"
						gradientTransform="matrix(0.9745 -0.2245 0.2245 0.9745 656.3406 -99.1264)">
						<stop offset="0" style="stop-color:#FF928E" />
						<stop offset="1" style="stop-color:#FE7062" />
					</linearGradient>
					<path style="fill:url(#SVGID_00000107583634645538379250000006206846567924418231_);" d="M837.728,1468.331
					c-22.653,5.647-30.617-4.479-30.617-4.479s-2.842,12.616-25.683,17.452c2.777,10.521,5.2,20.634,7.154,29.211
					c1.5,6.589,5.879,12.236,12.169,15.697c6.291,3.459,13.977,4.447,21.362,2.745c6.825-1.573,13.779-5.934,17.921-11.797
					c4.142-5.864,5.522-12.839,3.987-19.42C842.025,1489.173,839.835,1479.006,837.728,1468.331z" />
				</g>
			</g>
			<g>
				<g>
					<g>

						<linearGradient id="SVGID_00000049204284968318591220000007195595821052711569_"
							gradientUnits="userSpaceOnUse" x1="-6144.8589" y1="976.9974" x2="-5796.2109" y2="976.9974"
							gradientTransform="matrix(-1 0 0 1 -3411.738 0)">
							<stop offset="0" style="stop-color:#09005D" />
							<stop offset="1" style="stop-color:#1A0F91" />
						</linearGradient>
						<path style="fill:url(#SVGID_00000049204284968318591220000007195595821052711569_);" d="M2733.121,975.815
						c0-10.195-8.265-18.46-18.46-18.46h-311.728c-10.195,0-18.46,8.265-18.46,18.46v2.364c0,10.195,8.265,18.46,18.46,18.46
						h311.728c10.195,0,18.46-8.265,18.46-18.46V975.815z" />

						<linearGradient id="SVGID_00000181078626102716237850000000902924687167209361_"
							gradientUnits="userSpaceOnUse" x1="-6144.8589" y1="1139.0452" x2="-5796.2109" y2="1139.0452"
							gradientTransform="matrix(-1 0 0 1 -3411.738 0)">
							<stop offset="0" style="stop-color:#09005D" />
							<stop offset="1" style="stop-color:#1A0F91" />
						</linearGradient>
						<path style="fill:url(#SVGID_00000181078626102716237850000000902924687167209361_);" d="M2733.121,1137.863
						c0-10.195-8.265-18.46-18.46-18.46h-311.728c-10.195,0-18.46,8.265-18.46,18.46v2.364c0,10.195,8.265,18.46,18.46,18.46
						h311.728c10.195,0,18.46-8.265,18.46-18.46V1137.863z" />
					</g>

					<linearGradient id="SVGID_00000177466399549547158090000014367955303884786106_"
						gradientUnits="userSpaceOnUse" x1="-6016.6567" y1="1534.7323" x2="-5923.1118" y2="1534.7323"
						gradientTransform="matrix(-1 0 0 1 -3411.738 0)">
						<stop offset="0" style="stop-color:#09005D" />
						<stop offset="1" style="stop-color:#1A0F91" />
					</linearGradient>
					<path style="fill:url(#SVGID_00000177466399549547158090000014367955303884786106_);" d="M2533.92,883.697h47.083
					c10.787,0,19.533,9.732,19.533,20.522l4.382,1281.549h-93.545l0.773-1281.549C2512.147,893.43,2523.133,883.697,2533.92,883.697
					z" />

					<linearGradient id="SVGID_00000159433330917686278240000008192821460807936694_"
						gradientUnits="userSpaceOnUse" x1="2264.7185" y1="893.8065" x2="2514.2839" y2="1658.2113">
						<stop offset="0" style="stop-color:#FF928E" />
						<stop offset="1" style="stop-color:#FE7062" />
					</linearGradient>
					<path style="fill:url(#SVGID_00000159433330917686278240000008192821460807936694_);" d="M2438.489,1242.202
					c0,37.949-30.764,68.712-68.713,68.712h-88.458c-37.949,0-68.713-30.763-68.713-68.712V918.035
					c0-37.949,30.764-68.712,68.713-68.712h88.458c37.949,0,68.713,30.763,68.713,68.712V1242.202z" />
					<g>

						<linearGradient id="SVGID_00000112608895450791748990000017658566846899637689_"
							gradientUnits="userSpaceOnUse" x1="3780.5278" y1="-14416.9033" x2="3604.6968"
							y2="-14146.3945" gradientTransform="matrix(-1 0 0 1 -3411.738 0)">
							<stop offset="0" style="stop-color:#FF928E" />
							<stop offset="1" style="stop-color:#FE7062" />
						</linearGradient>
						<path style="fill:url(#SVGID_00000112608895450791748990000017658566846899637689_);" d="M2871.575,932.802
						c1.304,0,2.522,1.208,3.243,2.295c0.72,1.088,0.85,2.739,0.345,3.94l-7.08,17.635c-1.759,4.179-2.378,8.804-2.378,13.338v31.59
						c0,3.398-3.329,9.77-6.727,9.77h-111.125v-78.569H2871.575z" />

						<linearGradient id="SVGID_00000131327195811428597470000001296327734530003385_"
							gradientUnits="userSpaceOnUse" x1="3838.4785" y1="-14379.2246" x2="3662.6472"
							y2="-14108.7148" gradientTransform="matrix(-1 0 0 1 -3411.738 0)">
							<stop offset="0" style="stop-color:#FF928E" />
							<stop offset="1" style="stop-color:#FE7062" />
						</linearGradient>
						<path style="fill:url(#SVGID_00000131327195811428597470000001296327734530003385_);" d="M2871.575,1065.387
						c1.304,0,2.522-0.474,3.243,0.613c0.72,1.088,0.85,1.898,0.345,3.099l-7.08,17.214c-1.759,4.179-2.378,8.384-2.378,12.918
						v31.59c0,3.398-3.329,3.312-6.727,3.312h-111.125v-68.748H2871.575z" />

						<linearGradient id="SVGID_00000118392572316561728050000017972301751571170221_"
							gradientUnits="userSpaceOnUse" x1="3898.1211" y1="-14340.4658" x2="3722.29" y2="-14069.957"
							gradientTransform="matrix(-1 0 0 1 -3411.738 0)">
							<stop offset="0" style="stop-color:#FF928E" />
							<stop offset="1" style="stop-color:#FE7062" />
						</linearGradient>
						<path style="fill:url(#SVGID_00000118392572316561728050000017972301751571170221_);" d="M2871.575,1193.061
						c1.304,0,2.522,0.3,3.243,1.387c0.72,1.088,0.85,2.285,0.345,3.486l-7.08,17.408c-1.759,4.179-2.378,8.577-2.378,13.111v31.59
						c0,3.398-3.329,6.675-6.727,6.675h-111.125v-73.658H2871.575z" />
					</g>

					<linearGradient id="SVGID_00000112628014632654419140000008860553006138409916_"
						gradientUnits="userSpaceOnUse" x1="2948.9358" y1="740.5417" x2="2773.1047" y2="1011.0508">
						<stop offset="0" style="stop-color:#FF928E" />
						<stop offset="1" style="stop-color:#FE7062" />
					</linearGradient>
					<path style="fill:url(#SVGID_00000112628014632654419140000008860553006138409916_);" d="M2792.048,912.848
					c0-35.084-28.441-63.524-63.524-63.524h-0.625c-35.083,0-63.524,28.441-63.524,63.524v334.542
					c0,35.083,28.441,63.524,63.524,63.524h0.625c35.083,0,63.524-28.441,63.524-63.524V912.848z" />
				</g>
				<g>
					<g>

						<ellipse transform="matrix(0.9601 -0.2796 0.2796 0.9601 -172.1303 687.1763)"
							style="fill:#FFFFFF;" cx="2322.754" cy="946.972" rx="54.72" ry="54.72" />

						<linearGradient id="SVGID_00000049185220035294924920000017854277436522407347_"
							gradientUnits="userSpaceOnUse" x1="-5778.5459" y1="948.6957" x2="-5686.9907" y2="948.6957"
							gradientTransform="matrix(-1 0 0 1 -3411.738 0)">
							<stop offset="0" style="stop-color:#E1473D" />
							<stop offset="1" style="stop-color:#E9605A" />
						</linearGradient>

						<circle style="fill:url(#SVGID_00000049185220035294924920000017854277436522407347_);"
							cx="2321.031" cy="948.696" r="45.778" />
					</g>
					<g>

						<ellipse transform="matrix(0.8348 -0.5505 0.5505 0.8348 -208.1373 1456.1929)"
							style="fill:#FFFFFF;" cx="2322.754" cy="1074.968" rx="54.72" ry="54.72" />

						<linearGradient id="SVGID_00000064349205758415616060000008834016012965711287_"
							gradientUnits="userSpaceOnUse" x1="-5733.897" y1="1010.1005" x2="-5731.2305" y2="1167.4299"
							gradientTransform="matrix(-1 0 0 1 -3411.738 0)">
							<stop offset="0" style="stop-color:#FF928E" />
							<stop offset="1" style="stop-color:#FE7062" />
						</linearGradient>

						<circle style="fill:url(#SVGID_00000064349205758415616060000008834016012965711287_);"
							cx="2321.031" cy="1076.692" r="45.778" />
					</g>
					<g>

						<ellipse transform="matrix(0.9601 -0.2796 0.2796 0.9601 -242.2116 697.1725)"
							style="fill:#FFFFFF;" cx="2322.754" cy="1197.632" rx="54.72" ry="54.72" />

						<linearGradient id="SVGID_00000137830170658477168330000006256500981588611508_"
							gradientUnits="userSpaceOnUse" x1="-5778.5459" y1="1199.3558" x2="-5686.9907" y2="1199.3558"
							gradientTransform="matrix(-1 0 0 1 -3411.738 0)">
							<stop offset="0" style="stop-color:#4042E2" />
							<stop offset="1" style="stop-color:#4F52FF" />
						</linearGradient>

						<circle style="fill:url(#SVGID_00000137830170658477168330000006256500981588611508_);"
							cx="2321.031" cy="1199.356" r="45.778" />
					</g>
				</g>
			</g>
			<g>

				<linearGradient id="SVGID_00000120557271365696018070000013413514131905426863_"
					gradientUnits="userSpaceOnUse" x1="2148.4634" y1="1644.8906" x2="2150.7178" y2="1757.6031">
					<stop offset="0" style="stop-color:#E1473D" />
					<stop offset="1" style="stop-color:#E9605A" />
				</linearGradient>
				<path style="fill:url(#SVGID_00000120557271365696018070000013413514131905426863_);" d="M1596.26,1974.496
				c12-14.057,29.557-22.714,48.04-22.714h1031.304c24.303,0,46.45,14.504,56.957,36.418l22.696,47.623l-1198.252-15.201
				L1596.26,1974.496z" />

				<linearGradient id="SVGID_00000091694127367469639740000009200295327214775728_"
					gradientUnits="userSpaceOnUse" x1="2429.2544" y1="1952.5288" x2="1720.8322" y2="3369.3701">
					<stop offset="0" style="stop-color:#FF928E" />
					<stop offset="1" style="stop-color:#FE7062" />
				</linearGradient>
				<path style="fill:url(#SVGID_00000091694127367469639740000009200295327214775728_);" d="M1323.047,2084.387
				c1.542-48.905,42.822-89.409,93.218-89.409H2952.56c42.117,0,79.008,29.635,90.018,69.104l114.865,412.876l-10.543,132.513
				c-1.778,22.44-21.052,39.209-44.234,39.209H1365.902C1349.995,2648.681,1323.047,2084.387,1323.047,2084.387z" />

				<linearGradient id="SVGID_00000072244501995651579010000017726636299912050356_"
					gradientUnits="userSpaceOnUse" x1="1426.8785" y1="2510.6787" x2="1204.7086" y2="2795.123">
					<stop offset="0" style="stop-color:#E1473D" />
					<stop offset="1" style="stop-color:#E9605A" />
				</linearGradient>
				<path style="fill:url(#SVGID_00000072244501995651579010000017726636299912050356_);" d="M1347.95,2533.491h22.135
				c10.999,0,20.965,13.733,20.965,29.739v66.146c0,11.712-7.574,19.305-15.622,19.305h-19.151c-8.048,0-14.182-7.593-14.182-19.305
				v-86.04C1342.094,2538.316,1344.501,2533.491,1347.95,2533.491z" />
				<path style="opacity:0.68;fill:#FFFFFF;" d="M1627.19,2511.204h-204.464c-2.8,0-5.072-2.27-5.072-5.072s2.272-5.072,5.072-5.072
				h204.464c2.8,0,5.072,2.27,5.072,5.072S1629.99,2511.204,1627.19,2511.204z" />
				<path style="opacity:0.68;fill:#FFFFFF;" d="M2606.303,2511.204h-745.855c-2.8,0-5.072-2.27-5.072-5.072s2.272-5.072,5.072-5.072
				h745.855c2.8,0,5.072,2.27,5.072,5.072S2609.103,2511.204,2606.303,2511.204z" />
				<path style="opacity:0.68;fill:#FFFFFF;"
					d="M2500.259,2627.105h-210.067c-10.573,0-19.176-8.602-19.176-19.175v-60.868
				c0-10.573,8.602-19.175,19.176-19.175h210.067c10.573,0,19.175,8.602,19.175,19.175v60.868
				C2519.434,2618.503,2510.832,2627.105,2500.259,2627.105z M2290.192,2538.031c-4.98,0-9.031,4.052-9.031,9.031v60.868
				c0,4.979,4.052,9.031,9.031,9.031h210.067c4.979,0,9.031-4.052,9.031-9.031v-60.868c0-4.979-4.052-9.031-9.031-9.031H2290.192z" />
				<path style="opacity:0.68;fill:#FFFFFF;"
					d="M2101.221,2613.745h-80.231c-10.913,0-19.79-7.436-19.79-16.578v-39.34
				c0-7.914,7.598-14.351,16.94-14.351h88.777c10.128,0,18.366,6.938,18.366,15.464v34.887
				C2125.284,2604.809,2114.489,2613.745,2101.221,2613.745z M2018.14,2553.62c-3.89,0-6.796,2.221-6.796,4.207v39.34
				c0,3.487,4.418,6.434,9.646,6.434h80.231c7.545,0,13.918-4.476,13.918-9.774v-34.887c0-2.516-3.378-5.32-8.222-5.32H2018.14z" />

				<linearGradient id="SVGID_00000088104700107471186680000009891160250608651445_"
					gradientUnits="userSpaceOnUse" x1="-5332.9946" y1="2503.6626" x2="-5331.5654" y2="2685.832"
					gradientTransform="matrix(-1 0 0 1 -2200 0)">
					<stop offset="0" style="stop-color:#FF928E" />
					<stop offset="1" style="stop-color:#FE7062" />
				</linearGradient>
				<path style="fill:url(#SVGID_00000088104700107471186680000009891160250608651445_);" d="M3113.434,2481.061
				c3.224-3.275,7.701-5.005,12.289-4.75l31.721,1.763l-7.192,93.495l-15.344-10.693c-14.126-9.845-23.047-25.547-24.27-42.722
				l-1.761-24.731C3108.55,2488.838,3110.21,2484.335,3113.434,2481.061z" />

				<linearGradient id="SVGID_00000059999751447381932160000003639948448957241520_"
					gradientUnits="userSpaceOnUse" x1="3110.137" y1="1397.5999" x2="3119.7996" y2="2750.5166">
					<stop offset="0" style="stop-color:#E1473D" />
					<stop offset="1" style="stop-color:#E9605A" />
				</linearGradient>
				<path style="fill:url(#SVGID_00000059999751447381932160000003639948448957241520_);" d="M3073.239,2579.567h68.416
				c16.063,0,34.839,7.919,34.839,23.982v24.929c0,16.063-18.776,25.963-34.839,25.963h-68.416c-6.731,0-11.935-2.335-11.935-9.067
				v-58.722C3061.304,2579.921,3066.508,2579.567,3073.239,2579.567z" />
				<g>
					<g>

						<linearGradient id="SVGID_00000062910471866649471690000003070152969761897397_"
							gradientUnits="userSpaceOnUse" x1="-4059.5576" y1="2627.2239" x2="-3797.8218" y2="2627.2239"
							gradientTransform="matrix(-1 0 0 1 -2200 0)">
							<stop offset="0" style="stop-color:#09005D" />
							<stop offset="1" style="stop-color:#1A0F91" />
						</linearGradient>

						<circle style="fill:url(#SVGID_00000062910471866649471690000003070152969761897397_);"
							cx="1728.69" cy="2627.224" r="130.868" />

						<linearGradient id="SVGID_00000120538678587440592160000001138202862127020970_"
							gradientUnits="userSpaceOnUse" x1="-3928.6899" y1="2460.8262" x2="-3928.6899" y2="2910.2722"
							gradientTransform="matrix(-1 0 0 1 -2200 0)">
							<stop offset="0" style="stop-color:#E1473D" />
							<stop offset="1" style="stop-color:#E9605A" />
						</linearGradient>

						<circle style="fill:url(#SVGID_00000120538678587440592160000001138202862127020970_);"
							cx="1728.69" cy="2627.224" r="106.279" />
						<path style="opacity:0.68;fill:#FFFFFF;" d="M1639.424,2668.925c-1.978,0-3.857-1.162-4.676-3.097
						c-5.174-12.234-7.796-25.222-7.796-38.604c0-54.681,44.486-99.169,99.169-99.169c16.963,0,33.705,4.357,48.416,12.601
						c2.443,1.37,3.315,4.461,1.945,6.905c-1.374,2.447-4.464,3.307-6.905,1.945c-13.199-7.397-28.226-11.306-43.456-11.306
						c-49.089,0-89.025,39.936-89.025,89.025c0,12.016,2.354,23.675,6.997,34.651c1.09,2.581-0.116,5.556-2.698,6.647
						C1640.751,2668.796,1640.081,2668.925,1639.424,2668.925z" />
					</g>

					<linearGradient id="SVGID_00000124868240729512110170000006800753033719103915_"
						gradientUnits="userSpaceOnUse" x1="-3881.6729" y1="2548.5251" x2="-4014.7048" y2="2766.4932"
						gradientTransform="matrix(-1 0 0 1 -2200 0)">
						<stop offset="0" style="stop-color:#09005D" />
						<stop offset="1" style="stop-color:#1A0F91" />
					</linearGradient>
					<path style="fill:url(#SVGID_00000124868240729512110170000006800753033719103915_);" d="M1680.965,2627.224
					c0,26.919,21.822,48.741,48.74,48.741c26.918,0,48.74-21.822,48.74-48.741c0-26.918-21.822-48.74-48.74-48.74
					C1702.786,2578.484,1680.965,2600.305,1680.965,2627.224z" />
				</g>

				<linearGradient id="SVGID_00000183955468138425544980000017843534494408963228_"
					gradientUnits="userSpaceOnUse" x1="3055.6733" y1="2045.3999" x2="2817.6448" y2="2470.1885">
					<stop offset="0" style="stop-color:#4042E2" />
					<stop offset="1" style="stop-color:#4F52FF" />
				</linearGradient>
				<path style="fill:url(#SVGID_00000183955468138425544980000017843534494408963228_);" d="M3134.416,2420.134
				c0,0-92.563-1.975-175.344-5.372c-75.256-3.088-140.178-53.775-161.482-126.019l-56.742-192.421
				c-3.011-10.211,4.643-20.447,15.288-20.446l287.527,0.013l95.862,337.489C3140.469,2416.703,3137.967,2420.013,3134.416,2420.134
				z" />

				<linearGradient id="SVGID_00000114773283538163384010000012495808315719235714_"
					gradientUnits="userSpaceOnUse" x1="2348.9668" y1="1642.3224" x2="1685.0159" y2="2939.6958">
					<stop offset="0" style="stop-color:#4042E2" />
					<stop offset="1" style="stop-color:#4F52FF" />
				</linearGradient>
				<path style="fill:url(#SVGID_00000114773283538163384010000012495808315719235714_);" d="M2716.979,2360.96l-42.348-264.389
				c-2.921-18.239-19.038-31.726-38.049-31.843l-1219.426-7.469c-23.948-0.146-42.3,20.62-38.51,43.578l44.874,271.858
				c3.012,18.249,19.23,31.671,38.266,31.671h1216.899C2702.462,2404.366,2720.632,2383.77,2716.979,2360.96z" />
				<path style="fill:#7D97F4;" d="M2223.297,2103.788c0-4.641-2.135-10.899-6.32-10.899h-368.343c-4.185,0-8.344,6.258-8.344,10.899
				v1.008c0,4.641,4.159,8.252,8.344,8.252h368.343c4.185,0,6.32-3.611,6.32-8.252V2103.788z" />

				<linearGradient id="SVGID_00000011751301877288062910000004598541319958740403_"
					gradientUnits="userSpaceOnUse" x1="2825.488" y1="1603.1771" x2="2865.7529" y2="2260.1289">
					<stop offset="0" style="stop-color:#4042E2" />
					<stop offset="1" style="stop-color:#4F52FF" />
				</linearGradient>
				<path style="fill:url(#SVGID_00000011751301877288062910000004598541319958740403_);" d="M2940.355,2112.694
				c0-4.641-1.543-8.286-3.384-8.286h-161.943c-1.84,0-1.698,3.645-1.698,8.286v1.008c0,4.641-0.141,7.985,1.698,7.985h161.943
				c1.84,0,3.384-3.344,3.384-7.985V2112.694z" />
				<path style="fill:#7D97F4;"
					d="M1808.614,2103.788c0-4.641-3.074-10.899-7.259-10.899h-368.343
				c-4.185,0-10.284,6.258-10.284,10.899v1.008c0,4.641,6.1,8.252,10.284,8.252h368.343c4.185,0,7.259-3.611,7.259-8.252V2103.788z" />
				<path style="fill:#7D97F4;"
					d="M2640.861,2103.788c0-4.641-4.076-10.899-8.261-10.899h-368.343
				c-4.185,0-9.282,6.258-9.282,10.899v1.008c0,4.641,5.098,8.252,9.282,8.252H2632.6c4.185,0,8.261-3.611,8.261-8.252V2103.788z" />
				<path style="opacity:0.68;fill:#FFFFFF;" d="M2943.525,2618.198h-214.997c-1.347,0-2.635-0.535-3.586-1.486
				c-0.954-0.953-1.486-2.244-1.486-3.589l0.327-512.48c0.007-16.453,11.438-29.84,25.479-29.84h189.462
				c16.22,0,29.419,15.54,29.419,34.642v483.942C2968.142,2605.273,2957.1,2618.198,2943.525,2618.198z M2733.603,2608.054h209.922
				c7.981,0,14.473-8.374,14.473-18.667v-483.942c0-13.509-8.645-24.498-19.275-24.498h-189.462c-8.45,0-15.329,8.838-15.335,19.702
				L2733.603,2608.054z" />
				<g>
					<g>

						<linearGradient id="SVGID_00000142885289247286214670000010727898163432339352_"
							gradientUnits="userSpaceOnUse" x1="-5038.7041" y1="2627.2239" x2="-4776.9683" y2="2627.2239"
							gradientTransform="matrix(-1 0 0 1 -2200 0)">
							<stop offset="0" style="stop-color:#09005D" />
							<stop offset="1" style="stop-color:#1A0F91" />
						</linearGradient>

						<circle style="fill:url(#SVGID_00000142885289247286214670000010727898163432339352_);"
							cx="2707.836" cy="2627.224" r="130.868" />

						<linearGradient id="SVGID_00000043419794235205406200000004727889517006377654_"
							gradientUnits="userSpaceOnUse" x1="-4907.8369" y1="2460.8262" x2="-4907.8369" y2="2910.2722"
							gradientTransform="matrix(-1 0 0 1 -2200 0)">
							<stop offset="0" style="stop-color:#E1473D" />
							<stop offset="1" style="stop-color:#E9605A" />
						</linearGradient>

						<circle style="fill:url(#SVGID_00000043419794235205406200000004727889517006377654_);"
							cx="2707.837" cy="2627.224" r="106.279" />
						<path style="opacity:0.68;fill:#FFFFFF;" d="M2618.57,2668.925c-1.978,0-3.857-1.162-4.676-3.097
						c-5.175-12.234-7.796-25.222-7.796-38.604c0-54.681,44.486-99.169,99.169-99.169c16.963,0,33.705,4.357,48.416,12.601
						c2.444,1.37,3.315,4.461,1.945,6.905c-1.377,2.447-4.468,3.307-6.905,1.945c-13.198-7.397-28.227-11.306-43.456-11.306
						c-49.089,0-89.025,39.936-89.025,89.025c0,12.016,2.354,23.675,6.997,34.651c1.09,2.581-0.115,5.556-2.698,6.647
						C2619.898,2668.796,2619.228,2668.925,2618.57,2668.925z" />
					</g>

					<linearGradient id="SVGID_00000057148673469203476370000002799169939035037370_"
						gradientUnits="userSpaceOnUse" x1="-4860.8198" y1="2548.5251" x2="-4993.8521" y2="2766.4932"
						gradientTransform="matrix(-1 0 0 1 -2200 0)">
						<stop offset="0" style="stop-color:#09005D" />
						<stop offset="1" style="stop-color:#1A0F91" />
					</linearGradient>
					<path style="fill:url(#SVGID_00000057148673469203476370000002799169939035037370_);" d="M2660.112,2627.224
					c0,26.919,21.822,48.741,48.74,48.741s48.74-21.822,48.74-48.741c0-26.918-21.822-48.74-48.74-48.74
					S2660.112,2600.305,2660.112,2627.224z" />
				</g>
				<g>

					<linearGradient id="SVGID_00000152976043539760772800000015078562583841948846_"
						gradientUnits="userSpaceOnUse" x1="-5362.8193" y1="2116.604" x2="-5157.5938" y2="2116.604"
						gradientTransform="matrix(-1 0 0 1 -2200 0)">
						<stop offset="0" style="stop-color:#09005D" />
						<stop offset="1" style="stop-color:#1A0F91" />
					</linearGradient>
					<path style="fill:url(#SVGID_00000152976043539760772800000015078562583841948846_);" d="M2958.022,2069.198
					c1.845-7.906,8.894-13.745,17.012-13.745h107.656c9.165,0,17.667,5.025,22.43,12.854l57.699,94.984l-31.023,14.464
					l-37.866-73.808c-3.971-7.745-11.886-12.656-20.588-12.799l-99.66-1.64c-4.945-0.082-9.586-2.514-12.628-6.413
					C2958.013,2079.197,2956.898,2074.013,2958.022,2069.198z" />

					<linearGradient id="SVGID_00000061459458913536577920000005237472413247119499_"
						gradientUnits="userSpaceOnUse" x1="-5373.6143" y1="2189.3608" x2="-5313.1396" y2="2189.3608"
						gradientTransform="matrix(-1 0 0 1 -2200 0)">
						<stop offset="0" style="stop-color:#09005D" />
						<stop offset="1" style="stop-color:#1A0F91" />
					</linearGradient>
					<path style="fill:url(#SVGID_00000061459458913536577920000005237472413247119499_);" d="M3173.614,2157.748
					c0-15.145-12.277-27.422-27.422-27.422h-5.631c-15.145,0-27.422,12.277-27.422,27.422v63.226
					c0,15.145,12.277,27.422,27.422,27.422h5.631c15.145,0,27.422-12.277,27.422-27.422V2157.748z" />

					<linearGradient id="SVGID_00000041975489843779146920000008588411860484792972_"
						gradientUnits="userSpaceOnUse" x1="3204.4207" y1="2103.0452" x2="3035.7827" y2="2346.4705">
						<stop offset="0" style="stop-color:#FF928E" />
						<stop offset="1" style="stop-color:#FE7062" />
					</linearGradient>
					<path style="fill:url(#SVGID_00000041975489843779146920000008588411860484792972_);" d="M3142.744,2130.326h-3.054
					c-2.388,0-4.467-0.434-6.672,0.149c9.967,3.066,17.559,12.942,17.559,25.64v63.367c0,12.23-7.05,22.58-16.456,26.068
					c-0.022,0.207-0.153-0.234-0.176-0.027c1.889,0.411,3.733-0.006,5.745-0.006h3.054c15.145,0,27.99-10.984,27.99-26.128v-63.178
					C3170.735,2141.066,3157.889,2130.326,3142.744,2130.326z" />
				</g>
			</g>
		</g>
	</g>
</svg>